<svg width="36" height="29" viewBox="0 0 36 29" fill="none" xmlns="http://www.w3.org/2000/svg">
<path d="M32.4 0H3.6C1.62 0 0.018 1.63125 0.018 3.625L0 25.375C0 27.3687 1.62 29 3.6 29H32.4C34.38 29 36 27.3687 36 25.375V3.625C36 1.63125 34.38 0 32.4 0ZM31.68 7.70312L18.954 15.7144C18.378 16.0769 17.622 16.0769 17.046 15.7144L4.32 7.70312C4.13951 7.6011 3.98145 7.46326 3.8554 7.29795C3.72934 7.13263 3.63791 6.94328 3.58664 6.74136C3.53536 6.53943 3.52531 6.32913 3.55708 6.12318C3.58886 5.91723 3.66181 5.71991 3.77151 5.54317C3.88121 5.36643 4.02538 5.21394 4.19531 5.09493C4.36523 4.97592 4.55737 4.89286 4.76009 4.85079C4.96282 4.80872 5.17191 4.8085 5.37472 4.85016C5.57753 4.89181 5.76983 4.97447 5.94 5.09312L18 12.6875L30.06 5.09312C30.2302 4.97447 30.4225 4.89181 30.6253 4.85016C30.8281 4.8085 31.0372 4.80872 31.2399 4.85079C31.4426 4.89286 31.6348 4.97592 31.8047 5.09493C31.9746 5.21394 32.1188 5.36643 32.2285 5.54317C32.3382 5.71991 32.4111 5.91723 32.4429 6.12318C32.4747 6.32913 32.4646 6.53943 32.4134 6.74136C32.3621 6.94328 32.2707 7.13263 32.1446 7.29795C32.0185 7.46326 31.8605 7.6011 31.68 7.70312Z" fill="white"/>
</svg>
