<svg width="29" height="29" viewBox="0 0 29 29" fill="none" xmlns="http://www.w3.org/2000/svg">
<path d="M25.8929 0H3.10714C2.28308 0 1.49276 0.327359 0.910061 0.910061C0.327359 1.49276 0 2.28308 0 3.10714L0 25.8929C0 26.7169 0.327359 27.5072 0.910061 28.0899C1.49276 28.6726 2.28308 29 3.10714 29H25.8929C26.7169 29 27.5072 28.6726 28.0899 28.0899C28.6726 27.5072 29 26.7169 29 25.8929V3.10714C29 2.28308 28.6726 1.49276 28.0899 0.910061C27.5072 0.327359 26.7169 0 25.8929 0ZM24.8319 19.8967L23.8609 24.1043C23.8116 24.3182 23.6912 24.5091 23.5195 24.6458C23.3477 24.7826 23.1347 24.857 22.9152 24.8571C12.558 24.8571 4.14286 16.4607 4.14286 6.08482C4.15056 5.86736 4.22786 5.65811 4.36338 5.48786C4.49891 5.31761 4.68549 5.19536 4.89569 5.13908L9.10328 4.1681C9.17505 4.15293 9.24809 4.14447 9.32143 4.14286C9.5092 4.15233 9.691 4.2119 9.84797 4.31537C10.0049 4.41884 10.1314 4.56245 10.2141 4.73127L12.156 9.26252C12.2036 9.3847 12.2301 9.51405 12.2344 9.64509C12.2186 9.93253 12.0908 10.2023 11.8783 10.3966L9.42565 12.4033C10.9118 15.5531 13.4469 18.0882 16.5967 19.5744L18.6034 17.1217C18.7977 16.9092 19.0675 16.7814 19.3549 16.7656C19.486 16.7698 19.6153 16.7963 19.7375 16.844L24.2687 18.7859C24.4376 18.8685 24.5813 18.9949 24.6848 19.1519C24.7883 19.3089 24.8478 19.4908 24.8571 19.6786C24.8558 19.7519 24.8474 19.825 24.8319 19.8967Z" fill="white"/>
</svg>
